<svg xmlns="http://www.w3.org/2000/svg" width="25" height="24" viewBox="0 0 25 24">
    <g fill="none" fill-rule="evenodd" stroke="#A97541" stroke-width="1.5" transform="translate(.839 .244)">
        <path d="M5.204 2.479c.694.513 1.257 1.164 1.767 2.02.446.747 1.437 2.827.529 4.001-1.027 1.328-4 1.776-4 3 0 .921 1.304 1.972 2 3 1.047 1.546.571 3.044 0 4-.296.496-.769.92-1.293 1.234M20.168 4.727C18.009 5.762 15.042 6.461 14.5 6.5c-1.045.075-1.2-.784-2-2-.6-.912-2-2.053-2-3 0-.371.036-.672.131-.966"/>
        <circle cx="11.5" cy="11.5" r="11" stroke-linecap="square"/>
        <path d="M18.514 12.403c.042 3.084-3.972 6.93-6.014 6.097-1.79-.73-.527-2.138-.986-6.097-.191-1.646 1.567-3 3.5-3s3.478 1.344 3.5 3z"/>
    </g>
</svg>
