<svg xmlns="http://www.w3.org/2000/svg" width="16" height="16" viewBox="0 0 16 16">
    <g fill="none" fill-rule="evenodd" stroke="#02B19A" stroke-linecap="round" stroke-linejoin="round">
        <path d="M3.707 1.849c.49.373.9.841 1.205 1.377.3.51.98 1.928.361 2.729-.7.905-2.728 1.211-2.728 2.045 0 .628.889 1.344 1.364 2.045a2.433 2.433 0 0 1 0 2.728 2.544 2.544 0 0 1-.882.841M13.91 3.382a16.228 16.228 0 0 1-3.865 1.209c-.712.051-.818-.535-1.363-1.364-.409-.622-1.364-1.4-1.364-2.045a2.1 2.1 0 0 1 .089-.659"/>
        <circle cx="8" cy="8" r="7.5"/>
        <path d="M12.782 8.616c.029 2.1-2.708 4.725-4.1 4.157-1.22-.5-.36-1.458-.672-4.157-.13-1.122 1.068-2.045 2.39-2.045a2.244 2.244 0 0 1 2.382 2.045z"/>
    </g>
</svg>
